<svg width="251" height="251" viewBox="0 0 251 251" fill="none" xmlns="http://www.w3.org/2000/svg">
<path d="M125.499 0C142.826 0.000122294 158.514 7.02299 169.869 18.3779C185.928 18.3779 201.987 24.5042 214.24 36.7568C226.493 49.0093 232.619 65.0681 232.619 81.127C243.976 92.4825 251 108.17 251 125.499C251 142.827 243.976 158.515 232.621 169.87C232.621 185.929 226.495 201.988 214.242 214.241C201.99 226.494 185.93 232.619 169.871 232.619C158.516 243.975 142.828 251 125.5 251C108.172 251 92.4835 243.976 81.1279 232.62C65.0689 232.62 49.0095 226.494 36.7568 214.241C24.5038 201.988 18.3774 185.928 18.3779 169.868C7.02326 158.513 0.00010328 142.826 0 125.499C0 108.171 7.02392 92.4826 18.3799 81.127C18.3802 65.0682 24.5064 49.0093 36.7588 36.7568C49.0108 24.505 65.0688 18.3786 81.127 18.3779C92.4825 7.02258 108.171 0 125.499 0Z" fill="black"/>
</svg>
