<svg width="251" height="251" viewBox="0 0 251 251" fill="none" xmlns="http://www.w3.org/2000/svg">
<path d="M126 0C180.124 0 224 43.8761 224 98C224 107.382 222.68 116.455 220.219 125.046H251C251 141.459 247.754 157.711 241.447 172.875C235.14 188.039 225.896 201.817 214.242 213.423C202.588 225.029 188.753 234.235 173.526 240.516C158.3 246.797 141.981 250.029 125.5 250.029C109.019 250.029 92.6999 246.797 77.4736 240.516C62.2473 234.235 48.4116 225.029 36.7578 213.423C25.1041 201.817 15.8597 188.039 9.55273 172.875C3.24584 157.711 -1.4408e-06 141.459 0 125.046H31.7812C29.3198 116.455 28 107.382 28 98C28 43.8761 71.8761 0 126 0Z" fill="black"/>
</svg>
