<svg width="250" height="251" viewBox="0 0 250 251" fill="none" xmlns="http://www.w3.org/2000/svg">
<path d="M124.997 196C124.695 226.422 96.8299 251 62.5 251C28.1701 251 0.306233 226.422 0.00389768 196L-8.56742e-06 196L-2.44783e-06 56L0.0039038 56C0.00224915 55.8335 -2.43327e-06 55.6668 -2.42597e-06 55.5C2.23925e-06 24.8482 27.9822 -2.07531e-06 62.5 -5.66491e-07C97.0178 9.4233e-07 125 24.8482 125 55.5C125 55.6668 124.999 55.8335 124.997 56L125.004 56C125.002 55.8335 125 55.6668 125 55.5C125 24.8482 152.982 3.38861e-06 187.5 4.89743e-06C222.018 6.40625e-06 250 24.8482 250 55.5C250 55.6668 249.999 55.8335 249.997 56L250 56L250 196L249.997 196C249.695 226.422 221.83 251 187.5 251C153.17 251 125.306 226.422 125.004 196L124.997 196Z" fill="black"/>
</svg>
