<svg width="251" height="251" viewBox="0 0 251 251" fill="none" xmlns="http://www.w3.org/2000/svg">
<path d="M188.25 0C222.906 0 251 28.0941 251 62.75C251 96.4077 224.501 123.874 191.228 125.429C191.228 125.476 191.229 125.523 191.229 125.57C224.502 127.126 251 154.593 251 188.25C251 222.906 222.906 251 188.25 251C153.903 251 126.001 223.404 125.507 189.174C125.502 189.174 125.497 189.174 125.492 189.174C124.998 223.404 97.0974 251 62.75 251C28.0941 251 0 222.906 0 188.25C0 153.594 28.0941 125.5 62.75 125.5C63.7541 125.5 64.7526 125.525 65.7451 125.571C65.7458 125.523 65.7472 125.476 65.748 125.428C64.7545 125.474 63.7551 125.5 62.75 125.5C28.0941 125.5 0 97.4059 0 62.75C0 28.0941 28.0941 0 62.75 0C97.4059 0 125.5 28.0941 125.5 62.75C125.5 63.1065 125.495 63.4623 125.489 63.8174C125.496 63.8171 125.503 63.8167 125.51 63.8164C125.504 63.4616 125.5 63.1062 125.5 62.75C125.5 28.0941 153.594 0 188.25 0Z" fill="black"/>
</svg>
