<svg width="250" height="251" viewBox="0 0 250 251" fill="none" xmlns="http://www.w3.org/2000/svg">
<path d="M124.5 0C131 8.52404e-07 137.437 1.28011 143.442 3.76758C149.448 6.25519 154.905 9.90155 159.502 14.498C164.098 19.0945 167.745 24.552 170.232 30.5576C172.528 36.1007 173.793 42.0113 173.975 48H235C243.284 48 250 54.7157 250 63V251H0V63C1.54632e-06 54.7157 6.71573 48 15 48H75.0254C75.207 42.0113 76.4716 36.1007 78.7676 30.5576C81.2552 24.552 84.9015 19.0945 89.498 14.498C94.0945 9.90155 99.552 6.25519 105.558 3.76758C111.563 1.28011 118 6.72588e-08 124.5 0Z" fill="black"/>
</svg>
